<svg xmlns="http://www.w3.org/2000/svg" viewBox="0 0 26 26" fill="none">
  <g clip-path="url(#clip0_1048_1399)">
    <path d="M18.8186 6.26485C18.8186 6.61931 18.7133 6.96582 18.516 7.26054C18.3188 7.55527 18.0384 7.78498 17.7104 7.92063C17.3824 8.05627 17.0215 8.09177 16.6733 8.02261C16.325 7.95346 16.0052 7.78277 15.7541 7.53213C15.5031 7.28148 15.3321 6.96214 15.2629 6.61449C15.1936 6.26684 15.2291 5.90649 15.365 5.57901C15.5009 5.25152 15.731 4.97162 16.0262 4.77469C16.3214 4.57776 16.6684 4.47265 17.0235 4.47265C17.4996 4.47265 17.9561 4.66147 18.2928 4.99757C18.6294 5.33368 18.8186 5.78953 18.8186 6.26485ZM25.9989 6.33878C26.0349 9.90638 25.1519 13.0338 23.4477 15.3849C21.6907 17.81 19.0845 19.4409 15.7063 20.2339C13.5522 20.7402 11.0626 20.906 8.26114 20.7245C8.43093 21.8813 8.65532 23.0887 8.9343 24.347C8.97534 24.5206 8.98138 24.7005 8.95207 24.8764C8.92276 25.0524 8.85868 25.2207 8.76357 25.3716C8.66846 25.5225 8.54422 25.6531 8.39808 25.7556C8.25195 25.8581 8.08684 25.9306 7.91237 25.9688C7.73791 26.007 7.55757 26.0102 7.38188 25.9781C7.20618 25.946 7.03863 25.8794 6.88898 25.782C6.73934 25.6847 6.61059 25.5585 6.51024 25.411C6.4099 25.2635 6.33995 25.0975 6.30449 24.9228C5.96192 23.3658 5.69714 21.8757 5.51015 20.4523C4.08904 20.2657 2.59798 20.0017 1.037 19.6604C0.693104 19.5794 0.394913 19.3666 0.206758 19.068C0.0186026 18.7694 -0.044433 18.4089 0.0312513 18.0643C0.106936 17.7197 0.315272 17.4187 0.611312 17.2261C0.907352 17.0335 1.26736 16.9648 1.61367 17.0348C2.87248 17.3089 4.08081 17.5329 5.23865 17.7069C5.06138 14.9066 5.22406 12.4289 5.73005 10.2805C6.52438 6.90444 8.15792 4.30351 10.5847 2.55164C12.9407 0.847928 16.0732 -0.0358503 19.6477 0.00111379C22.0924 0.0246364 24.3598 0.496209 24.7861 0.744876C24.9823 0.860134 25.1459 1.02315 25.2618 1.21869C25.5019 1.63202 25.9743 3.89803 25.9989 6.33878ZM19.4401 15.6672C17.2524 15.072 15.2583 13.917 13.6549 12.3162C12.0516 10.7155 10.8947 8.72456 10.2986 6.5404C9.26527 7.90247 8.55284 9.62858 8.17475 11.693C7.83817 13.5289 7.76412 15.6414 7.95037 18.0094C10.3244 18.1942 12.4381 18.1214 14.2803 17.7853C16.3503 17.409 18.0747 16.6977 19.439 15.6672H19.4401ZM22.9697 3.01649C21.1858 2.68045 16.3166 2.06998 12.6187 4.40992C12.9044 6.68152 13.9397 8.79347 15.5611 10.4124C17.1824 12.0314 19.2977 13.0652 21.5729 13.3508C23.9155 9.66107 23.3063 4.79973 22.9697 3.01649Z" fill="var(--text)"/>
  </g>
  <defs>
    <clipPath id="clip0_1048_1399">
      <rect width="26" height="26" fill="white"/>
    </clipPath>
  </defs>
</svg>
