<svg width="268" height="49" viewBox="0 0 268 49" fill="none" xmlns="http://www.w3.org/2000/svg">
<path d="M1.952 41V25H6.752L6.976 28.456C7.38133 27.2613 7.97867 26.3333 8.768 25.672C9.57867 25.0107 10.6027 24.68 11.84 24.68C12.2453 24.68 12.5867 24.712 12.864 24.776C13.1627 24.84 13.3973 24.9253 13.568 25.032L13.024 29.512C12.8107 29.4267 12.5333 29.3627 12.192 29.32C11.872 29.256 11.4773 29.224 11.008 29.224C10.368 29.224 9.77067 29.3627 9.216 29.64C8.66133 29.9173 8.21333 30.3333 7.872 30.888C7.552 31.4213 7.392 32.104 7.392 32.936V41H1.952ZM23.3225 41.32C21.5518 41.32 20.0158 40.9893 18.7145 40.328C17.4345 39.6667 16.4425 38.7173 15.7385 37.48C15.0345 36.2427 14.6825 34.7493 14.6825 33C14.6825 31.2507 15.0345 29.7573 15.7385 28.52C16.4425 27.2827 17.4238 26.3333 18.6825 25.672C19.9625 25.0107 21.4238 24.68 23.0665 24.68C24.7518 24.68 26.1812 25.0107 27.3545 25.672C28.5492 26.312 29.4558 27.208 30.0745 28.36C30.6932 29.4907 31.0025 30.792 31.0025 32.264C31.0025 32.648 30.9918 33.032 30.9705 33.416C30.9492 33.8 30.9172 34.12 30.8745 34.376H18.2025V31.464H28.4745L25.8825 32.456C25.8825 31.176 25.6478 30.1947 25.1785 29.512C24.7305 28.8293 24.0265 28.488 23.0665 28.488C22.3838 28.488 21.7972 28.648 21.3065 28.968C20.8372 29.288 20.4745 29.7893 20.2185 30.472C19.9838 31.1547 19.8665 32.0293 19.8665 33.096C19.8665 34.1413 20.0052 34.9947 20.2825 35.656C20.5598 36.296 20.9545 36.7653 21.4665 37.064C21.9785 37.3413 22.5972 37.48 23.3225 37.48C24.1332 37.48 24.7732 37.32 25.2425 37C25.7332 36.68 26.0958 36.232 26.3305 35.656L30.6825 37.096C30.3838 38.0133 29.8612 38.792 29.1145 39.432C28.3892 40.0507 27.5145 40.52 26.4905 40.84C25.4878 41.16 24.4318 41.32 23.3225 41.32ZM42.9738 30.856C42.9738 30.1093 42.7604 29.5227 42.3338 29.096C41.9284 28.648 41.3738 28.424 40.6698 28.424C39.9658 28.424 39.3578 28.6053 38.8458 28.968C38.3551 29.3093 38.0138 29.928 37.8218 30.824L33.2138 29.736C33.5124 28.2 34.3018 26.9733 35.5818 26.056C36.8618 25.1387 38.6644 24.68 40.9898 24.68C42.5471 24.68 43.8698 24.9147 44.9578 25.384C46.0671 25.832 46.9098 26.5147 47.4858 27.432C48.0831 28.328 48.3818 29.4373 48.3818 30.76V36.616C48.3818 37.448 48.7551 37.864 49.5018 37.864C49.8858 37.864 50.1951 37.8213 50.4298 37.736L50.1098 40.84C49.4698 41.1387 48.6911 41.288 47.7738 41.288C46.9418 41.288 46.2058 41.16 45.5658 40.904C44.9258 40.6267 44.4244 40.2213 44.0618 39.688C43.6991 39.1333 43.5178 38.44 43.5178 37.608V37.416L44.1258 37.192C44.1258 38.1093 43.8484 38.8773 43.2938 39.496C42.7604 40.1147 42.0564 40.5733 41.1818 40.872C40.3284 41.1707 39.4324 41.32 38.4938 41.32C37.4058 41.32 36.4564 41.1493 35.6458 40.808C34.8351 40.4667 34.2058 39.976 33.7578 39.336C33.3311 38.6747 33.1178 37.864 33.1178 36.904C33.1178 35.752 33.4591 34.8027 34.1418 34.056C34.8458 33.288 35.9444 32.7547 37.4378 32.456L43.4858 31.208L43.4538 34.088L40.3818 34.728C39.7418 34.856 39.2618 35.048 38.9418 35.304C38.6431 35.5387 38.4938 35.9013 38.4938 36.392C38.4938 36.8613 38.6644 37.2133 39.0058 37.448C39.3471 37.6827 39.7524 37.8 40.2218 37.8C40.5844 37.8 40.9258 37.7467 41.2458 37.64C41.5871 37.5333 41.8858 37.3733 42.1418 37.16C42.3978 36.9253 42.6004 36.6373 42.7498 36.296C42.8991 35.9547 42.9738 35.5493 42.9738 35.08V30.856ZM58.34 41.32C57.0173 41.32 55.8547 41 54.852 40.36C53.8707 39.6987 53.1027 38.7493 52.548 37.512C52.0147 36.2747 51.748 34.792 51.748 33.064C51.748 31.272 52.0253 29.7573 52.58 28.52C53.156 27.2827 53.9453 26.3333 54.948 25.672C55.972 25.0107 57.1453 24.68 58.468 24.68C59.9187 24.68 61.0813 25.128 61.956 26.024C62.852 26.8987 63.428 28.0187 63.684 29.384L63.172 30.056V18.216H68.612V41H63.748L63.396 35.56L64.036 36.04C63.908 37.1067 63.5773 38.0347 63.044 38.824C62.532 39.6133 61.8707 40.232 61.06 40.68C60.2707 41.1067 59.364 41.32 58.34 41.32ZM60.228 37.32C60.8467 37.32 61.3693 37.16 61.796 36.84C62.244 36.4987 62.5853 35.9973 62.82 35.336C63.0547 34.6747 63.172 33.864 63.172 32.904C63.172 32.008 63.0547 31.2507 62.82 30.632C62.6067 29.992 62.276 29.512 61.828 29.192C61.4013 28.8507 60.8787 28.68 60.26 28.68C59.3213 28.68 58.5747 29.032 58.02 29.736C57.4867 30.4187 57.22 31.5067 57.22 33C57.22 34.4933 57.4867 35.592 58.02 36.296C58.5533 36.9787 59.2893 37.32 60.228 37.32ZM79.2025 19.912V35.304C79.2025 36.072 79.3838 36.6267 79.7465 36.968C80.1305 37.288 80.6532 37.448 81.3145 37.448C81.8265 37.448 82.2638 37.3947 82.6265 37.288C83.0105 37.16 83.3518 36.9787 83.6505 36.744L84.2265 40.104C83.6932 40.488 83.0212 40.7867 82.2105 41C81.3998 41.2133 80.5678 41.32 79.7145 41.32C78.4985 41.32 77.4425 41.1493 76.5465 40.808C75.6718 40.4667 74.9892 39.9227 74.4985 39.176C74.0292 38.4293 73.7838 37.4373 73.7625 36.2V21.416L79.2025 19.912ZM83.9705 25V28.872H71.0105V25H83.9705ZM86.8583 41V18.216H92.2983V27.912C92.7676 26.8453 93.4396 26.0453 94.3142 25.512C95.1889 24.9573 96.2023 24.68 97.3543 24.68C98.4636 24.68 99.4236 24.8933 100.234 25.32C101.066 25.7467 101.717 26.376 102.186 27.208C102.656 28.04 102.89 29.0853 102.89 30.344V41H97.4503V31.848C97.4503 30.696 97.2369 29.9067 96.8103 29.48C96.4049 29.032 95.8609 28.808 95.1783 28.808C94.6663 28.808 94.1863 28.936 93.7383 29.192C93.2903 29.448 92.9383 29.8533 92.6823 30.408C92.4263 30.9627 92.2983 31.688 92.2983 32.584V41H86.8583ZM109.422 23.144C108.313 23.144 107.502 22.9413 106.99 22.536C106.499 22.1093 106.254 21.448 106.254 20.552C106.254 19.6347 106.499 18.9733 106.99 18.568C107.502 18.1413 108.313 17.928 109.422 17.928C110.51 17.928 111.31 18.1413 111.822 18.568C112.334 18.9733 112.59 19.6347 112.59 20.552C112.59 21.448 112.334 22.1093 111.822 22.536C111.31 22.9413 110.51 23.144 109.422 23.144ZM112.142 25V41H106.702V25H112.142ZM122.735 41.32C121.135 41.32 119.641 41.064 118.255 40.552C116.889 40.0187 115.759 39.2613 114.863 38.28L117.423 35.272C117.956 35.9547 118.66 36.5307 119.535 37C120.431 37.448 121.423 37.672 122.51 37.672C123.172 37.672 123.716 37.576 124.143 37.384C124.569 37.192 124.783 36.8933 124.783 36.488C124.783 36.1893 124.676 35.9547 124.463 35.784C124.249 35.592 123.823 35.432 123.183 35.304L120.943 34.856C118.937 34.4507 117.508 33.8533 116.655 33.064C115.823 32.2533 115.407 31.1973 115.407 29.896C115.407 29.0213 115.673 28.1893 116.207 27.4C116.74 26.5893 117.561 25.9387 118.671 25.448C119.78 24.936 121.199 24.68 122.927 24.68C124.548 24.68 125.977 24.9147 127.215 25.384C128.452 25.8533 129.433 26.536 130.159 27.432L127.567 30.376C127.055 29.736 126.393 29.2347 125.583 28.872C124.772 28.5093 123.961 28.328 123.151 28.328C122.639 28.328 122.201 28.3813 121.839 28.488C121.497 28.5733 121.241 28.7013 121.071 28.872C120.9 29.0427 120.815 29.256 120.815 29.512C120.815 29.7893 120.943 30.0347 121.199 30.248C121.476 30.44 121.977 30.6107 122.703 30.76L125.615 31.336C127.257 31.6347 128.441 32.1787 129.167 32.968C129.892 33.7573 130.255 34.7067 130.255 35.816C130.255 36.8613 129.977 37.8 129.423 38.632C128.868 39.464 128.036 40.1253 126.927 40.616C125.817 41.0853 124.42 41.32 122.735 41.32Z" fill="var(--text)"/>
<path d="M188.209 -10.2905C187.296 -11.1209 187.195 -12.0221 188.285 -12.4158C188.999 -12.6736 190.562 -12.4917 192.459 -9.60738C194.357 -6.72304 194.509 -3.07966 194.281 -0.300334C194.129 1.55046 192.08 7.62274 188.133 13.695C187.225 15.3896 186.889 17.0222 187.526 17.7179C188.03 18.2682 188.588 19.0655 189.102 19.9191C190.106 21.589 188.892 28.4203 188.892 29.9384C188.892 31.077 189.12 32.0637 189.405 32.6709C189.661 33.4852 190.434 34.6012 191.473 35.7071C193.035 37.3697 193.016 37.101 192.915 39.73C192.761 43.7346 192.601 45.1616 191.7 46.9408C191.11 48.1076 190.812 48.3086 188.664 48.3071C186.592 48.3056 186.457 48.2495 186.311 47.4721C186.132 46.5146 186.463 45.6504 187.829 45.5745C188.383 45.5745 188.695 45.2205 188.892 43.4492C189.051 42.0216 189.043 41.0456 188.664 40.6408C188.096 40.0336 185.704 39.4264 184.641 38.7432C183.815 38.3731 180.239 35.4035 179.632 35.3276C179.202 35.3207 179.234 36.6938 179.708 40.2613C179.867 41.4602 179.719 42.1451 178.341 43.5251C176.765 45.1049 174.148 46.943 173.484 47.3962C172.858 47.8029 172.786 47.9323 170.675 47.9276C168.039 47.9217 168.019 48.0399 168.019 46.8228C168.019 45.5452 168.585 45.3468 170.372 45.3468C170.947 45.3468 171.535 45.1307 172.269 44.436C172.381 44.3304 172.966 43.8628 173.256 43.6417C174.379 42.7852 174.803 42.0643 173.939 40.7926C173.605 40.3008 173.408 39.9367 173.028 39.2745C172.624 38.5696 171.814 36.6179 170.903 36.8456C169.004 37.6686 165.058 39.2745 159.29 40.7167C156.588 41.0667 153.551 41.5061 152.807 42.7661C149.657 44.0261 147.669 44.8324 146.669 45.3207C146.008 45.6434 143.211 46.4731 142.181 46.8228C141.291 47.1246 139.907 48.0739 137.687 48.4361C137.27 48.5042 137.809 48.4589 133.938 48.6107C133.038 48.6107 132.475 47.3803 133.103 46.4854C133.635 45.7263 133.775 45.6556 134.925 45.6504C135.973 45.6457 135.763 46.0468 138.34 44.7396C139.782 43.9047 141.542 42.8787 141.984 42.6143C142.426 42.3499 145.775 40.2613 145.855 40.2613C146.831 39.73 146.779 39.2971 146.841 37.6047C146.899 36.0643 146.735 35.1313 146.158 34.7203C145.437 34.2069 143.694 34.2617 143.046 34.8721C141.692 36.1481 141.634 36.3439 139.327 35.2517L139.313 35.2452C139.117 35.1525 138.562 34.8896 138.264 34.6444C137.716 34.1927 137.961 34.1131 137.733 33.2023C137.657 32.595 138.644 32.5191 138.112 30.5456L137.961 29.1794L139.403 26.9023C140.238 25.9914 140.162 25.3083 138.644 23.6384C138.037 23.0312 137.684 22.5493 137.885 22.348C138.027 22.2054 138.505 22.2542 139.099 22.424C139.655 22.5829 141.073 23.5625 139.631 22.2086C139.327 21.5131 139.479 21.1336 141.376 21.7537C141.627 21.9155 142.102 22.1752 142.591 22.424C143.309 22.7895 144.235 23.0988 145.739 23.246C146.635 23.3338 147.489 23.4699 147.636 23.5485C149.021 24.2881 149.346 24.3188 154.052 23.7143C162.326 22.6517 164.755 17.3384 167.563 16.7657C172.041 14.0746 178.091 13.6467 179.176 13.6034C180.373 13.5557 181.332 13.4418 181.612 13.3141C182.105 13.0892 182.889 12.3021 183.202 11.7172C195.647 -2.85195 189.227 -9.36469 188.209 -10.2905Z" fill="var(--primary)"/>
<path d="M199.64 35.496C200.643 35.496 201.421 35.752 201.976 36.264C202.552 36.776 202.84 37.4907 202.84 38.408C202.84 39.304 202.552 40.008 201.976 40.52C201.421 41.032 200.643 41.288 199.64 41.288C198.659 41.288 197.88 41.032 197.304 40.52C196.728 40.008 196.44 39.304 196.44 38.408C196.44 37.4907 196.728 36.776 197.304 36.264C197.88 35.752 198.659 35.496 199.64 35.496ZM212.72 17.768C213.595 17.768 214.363 17.864 215.025 18.056C215.686 18.2267 216.177 18.4293 216.497 18.664L215.953 22.056C215.718 21.9067 215.451 21.7893 215.153 21.704C214.854 21.6187 214.481 21.576 214.033 21.576C213.286 21.576 212.667 21.7467 212.177 22.088C211.707 22.4293 211.473 23.0267 211.473 23.88V25.96L211.793 26.856V41H206.353V23.528C206.353 22.504 206.513 21.6293 206.833 20.904C207.174 20.1787 207.643 19.5813 208.241 19.112C208.838 18.6427 209.521 18.3013 210.289 18.088C211.057 17.8747 211.867 17.768 212.72 17.768ZM216.337 25V28.872H203.793V25H216.337ZM234.642 25L228.818 41C228.22 42.6853 227.57 44.0293 226.866 45.032C226.162 46.0347 225.33 46.76 224.37 47.208C223.41 47.656 222.258 47.88 220.914 47.88C220.018 47.88 219.196 47.784 218.45 47.592C217.703 47.4 217.052 47.1333 216.498 46.792L217.586 43.112C217.97 43.3893 218.375 43.5813 218.802 43.688C219.228 43.816 219.772 43.88 220.434 43.88C221.052 43.88 221.554 43.7733 221.938 43.56C222.343 43.3467 222.663 42.9413 222.898 42.344L223.314 41.352L221.458 37L216.658 25H222.642L225.106 34.12L225.874 37.512L226.77 33.992L229.234 25H234.642ZM239.297 23.144C238.188 23.144 237.377 22.9413 236.865 22.536C236.374 22.1093 236.129 21.448 236.129 20.552C236.129 19.6347 236.374 18.9733 236.865 18.568C237.377 18.1413 238.188 17.928 239.297 17.928C240.385 17.928 241.185 18.1413 241.697 18.568C242.209 18.9733 242.465 19.6347 242.465 20.552C242.465 21.448 242.209 22.1093 241.697 22.536C241.185 22.9413 240.385 23.144 239.297 23.144ZM242.017 25V41H236.577V25H242.017Z" fill="var(--text)"/>
<path d="M248.816 14.224L250.096 15.472C249.499 16.016 249.008 16.592 248.624 17.2C248.24 17.808 247.957 18.4747 247.776 19.2C247.605 19.9147 247.52 20.7253 247.52 21.632C247.52 22.5387 247.605 23.36 247.776 24.096C247.957 24.8213 248.24 25.4827 248.624 26.08C249.008 26.688 249.499 27.264 250.096 27.808L248.816 29.056C247.589 28.2347 246.656 27.2107 246.016 25.984C245.387 24.7467 245.072 23.296 245.072 21.632C245.072 19.9893 245.387 18.5493 246.016 17.312C246.656 16.0747 247.589 15.0453 248.816 14.224ZM254.234 26.16C253.551 26.16 252.965 25.9787 252.474 25.616C251.983 25.2427 251.61 24.72 251.354 24.048C251.098 23.3653 250.97 22.5707 250.97 21.664C250.97 20.1707 251.274 19.04 251.882 18.272C252.49 17.4933 253.301 17.104 254.314 17.104C254.73 17.104 255.093 17.1627 255.402 17.28C255.722 17.3867 255.999 17.536 256.234 17.728C256.469 17.92 256.671 18.1387 256.842 18.384H256.906L257.114 17.264H259.13V23.232C259.13 23.5947 259.194 23.84 259.322 23.968C259.461 24.096 259.615 24.16 259.786 24.16C259.861 24.16 259.946 24.1493 260.042 24.128C260.138 24.1067 260.207 24.0907 260.25 24.08V25.952C260.197 25.984 260.106 26.016 259.978 26.048C259.85 26.08 259.711 26.1067 259.562 26.128C259.423 26.1493 259.295 26.16 259.178 26.16C258.645 26.16 258.213 26.064 257.882 25.872C257.551 25.68 257.295 25.3387 257.114 24.848H256.954C256.794 25.0827 256.586 25.3013 256.33 25.504C256.074 25.7067 255.77 25.8667 255.418 25.984C255.066 26.1013 254.671 26.16 254.234 26.16ZM255.114 24.288C255.551 24.288 255.898 24.1973 256.154 24.016C256.421 23.8347 256.613 23.5573 256.73 23.184C256.847 22.8 256.906 22.32 256.906 21.744V21.648C256.906 20.7947 256.773 20.1493 256.506 19.712C256.25 19.264 255.775 19.04 255.082 19.04C254.517 19.04 254.095 19.264 253.818 19.712C253.541 20.16 253.402 20.816 253.402 21.68C253.402 22.5333 253.541 23.184 253.818 23.632C254.095 24.0693 254.527 24.288 255.114 24.288ZM262.206 29.056L260.926 27.808C261.534 27.264 262.024 26.688 262.398 26.08C262.782 25.4827 263.059 24.8213 263.23 24.096C263.4 23.36 263.486 22.544 263.486 21.648C263.486 20.7413 263.4 19.9253 263.23 19.2C263.059 18.4747 262.782 17.808 262.398 17.2C262.024 16.592 261.534 16.016 260.926 15.472L262.206 14.224C263.422 15.0453 264.35 16.0747 264.99 17.312C265.63 18.5493 265.95 19.9947 265.95 21.648C265.95 23.3013 265.63 24.7467 264.99 25.984C264.35 27.2107 263.422 28.2347 262.206 29.056Z" fill="var(--primary)"/>
</svg>
