<svg xmlns="http://www.w3.org/2000/svg" width="185" height="108" viewBox="0 0 185 108" fill="none">
  <path d="M68.6664 74.4511C71.0457 75.0756 73.478 75.2266 75.7843 75.9971C78.7831 76.9992 81.5175 78.3739 83.0659 81.3601C83.5594 82.3118 83.7785 83.2737 83.1415 84.2128C82.4667 85.2099 81.4067 85.1444 80.4046 84.9505C78.9568 84.6685 77.64 84.6434 76.3785 85.6555C75.4671 86.3857 74.2837 86.1339 73.2186 85.9149C71.1993 85.4994 69.3613 84.5376 67.4201 83.8779C64.2098 82.7902 60.8787 82.541 57.5476 82.2766C53.5618 81.9619 49.5685 81.705 45.6608 80.7785C42.6168 80.0584 40.9147 77.9308 42.0805 75.0051C42.4204 74.1515 41.7834 74.1163 41.2722 73.9753C37.9487 73.0487 34.7661 71.7873 31.853 69.9115C28.6276 67.8368 25.9436 65.2308 24.0905 61.8468C23.5642 60.885 23.101 60.749 22.1694 61.381C18.6494 63.7604 15.1899 66.2253 12.7854 69.8057C8.59818 76.0449 9.81934 81.7478 15.482 86.2472C19.6792 89.5809 24.7174 91.1193 29.8286 92.3077C34.6226 93.4206 39.4846 94.2036 44.4019 94.6669C48.1711 95.0219 51.9076 95.7471 55.6794 96.0794C59.4335 96.4118 63.1296 97.0412 66.7755 97.8998C71.5141 99.0152 76.1167 100.559 80.1704 103.391C81.2455 104.142 82.1671 105.061 82.9325 106.116C83.2573 106.564 83.6853 107.193 83.2573 107.714C82.8066 108.266 82.162 107.893 81.6408 107.641C78.0882 105.917 74.4197 104.512 70.5749 103.595C67.0449 102.754 63.4645 102.248 59.8489 101.87C54.9995 101.364 50.1376 101.072 45.2806 100.745C42.4506 100.554 39.6231 100.289 36.7905 100.116C34.7989 99.9921 32.8173 99.6371 30.8358 99.3551C26.1551 98.6904 21.5449 97.7034 17.0984 96.0744C11.7833 94.1281 6.9918 91.3761 3.52473 86.7332C1.68167 84.2657 0.634244 81.4658 0.201174 78.4293C-0.748053 71.7973 1.76224 66.2153 5.61706 61.1066C9.21002 56.3478 13.6867 52.493 18.5437 49.0864C19.6893 48.2832 20.0846 47.4145 20.1249 46.007C20.2634 41.3692 21.4014 36.9126 23.2621 32.6726C26.1224 26.1564 30.0276 20.3125 35.2294 15.4429C43.6617 7.55203 53.4787 2.35016 65.018 0.670758C70.8745 -0.182791 76.6933 -0.245733 82.5976 0.620406C91.1558 1.87429 98.9686 4.99893 106.459 9.12819C109.999 11.0795 113.678 12.6481 117.656 13.4765C118.734 13.7006 119.059 13.401 119.011 12.3057C118.819 7.95236 121.654 3.81303 125.771 3.07782C129.976 2.32498 133.41 3.95654 136.087 7.2096C137.298 8.68254 138.116 10.3821 138.617 12.2176C138.776 12.8017 139.015 13.0434 139.632 13.0711C142.676 13.2172 145.725 13.3582 148.686 14.1664C149.426 14.3678 149.401 13.97 149.487 13.469C149.945 10.8454 150.725 8.33759 152.385 6.18987C152.793 5.66113 153.218 5.13489 153.707 4.68168C155.56 2.95696 157.619 3.08285 159.344 4.94857C160.862 6.59021 161.625 8.56923 161.774 10.7396C161.963 13.4614 161.902 16.1907 160.842 18.7791C160.545 19.5067 160.673 19.9071 161.366 20.4132C166.225 23.9709 170.337 28.1455 172.792 33.8106C173.789 36.1144 175.775 37.8316 177.367 39.7729C179.517 42.3939 181.728 44.9672 183.873 47.5908C185.278 49.3079 185.18 52.3495 183.515 53.8124C181.415 55.6579 179.474 57.7024 177.022 59.1376C174.068 60.8674 170.939 61.8116 167.497 61.9072C163.78 62.0105 160.177 61.3155 156.537 60.7767C153.696 60.3562 150.861 59.7293 147.961 59.8627C147.132 59.9005 146.307 60.034 145.478 60.1095C145.068 60.1473 144.519 60.0843 144.396 60.5098C144.325 60.749 144.685 61.172 144.934 61.4339C147.304 63.914 150.028 65.684 153.545 66.175C155.945 66.5099 158.161 67.4339 159.578 69.6118C160.464 70.974 160.928 72.4218 160.235 74.008C159.613 75.4381 158.44 75.8787 156.635 75.2745C153.86 74.3454 151.164 73.157 148.273 72.603C144.338 71.8502 140.392 71.1578 136.452 70.4503C135.747 70.3244 135.523 70.5334 135.875 71.256C137.421 74.4234 139.841 76.269 143.406 76.76C146.135 77.1377 148.515 78.3765 150.124 80.7458C150.735 81.6471 151.063 82.6769 150.474 83.7017C149.93 84.6484 148.92 84.739 147.941 84.7693C147.271 84.7894 146.599 84.7995 145.926 84.7693C145.033 84.734 144.25 84.8372 143.479 85.4466C142.676 86.0811 141.686 86.1944 140.644 85.7462C138.972 85.0261 137.441 84.0718 136.016 82.974C133.574 81.0907 130.794 80.3152 127.785 79.9451C123.792 79.4541 119.834 78.7012 116.261 76.7046C114.69 75.8284 113.172 74.849 111.684 73.8368C108.859 71.9106 105.596 71.3089 102.348 70.7373C98.168 70.0021 93.9279 69.9618 89.708 70.2086C84.0605 70.5384 78.5489 71.7016 73.1305 73.3231C71.6601 73.7638 70.1519 74.0659 68.6614 74.4335L68.6664 74.4511ZM150.985 40.7171C150.912 41.4598 151.383 41.8828 151.949 42.19C152.553 42.5173 153.148 42.4745 153.664 41.9533C154.575 41.0293 155.514 40.1279 156.408 39.1862C156.856 38.7154 157.191 38.7053 157.642 39.1862C158.501 40.1027 159.425 40.9588 160.293 41.8677C161.069 42.6759 161.857 42.5551 162.622 41.9181C163.282 41.3692 163.229 40.3142 162.529 39.5916C161.625 38.6575 160.714 37.7309 159.775 36.8371C159.377 36.4594 159.369 36.2051 159.777 35.8299C160.517 35.1501 161.207 34.4174 161.922 33.7099C163.438 32.2067 163.574 31.5974 162.6 30.6432C161.817 29.8752 161.308 30.049 159.825 31.4967C159.11 32.1967 158.453 32.9545 157.634 33.5613C157.106 33.9516 156.796 33.9038 156.373 33.4531C155.57 32.597 154.726 31.7812 153.888 30.9604C153.175 30.263 152.45 29.7594 151.541 30.7263C150.733 31.5848 150.73 32.2798 151.637 33.2038C152.458 34.0423 153.268 34.8933 154.135 35.6839C154.651 36.1547 154.709 36.4745 154.16 36.9705C153.261 37.7863 152.433 38.6801 151.569 39.5337C151.234 39.8635 150.909 40.1908 150.982 40.7221L150.985 40.7171Z" fill="#BFBFBF"/>
  <path d="M150.985 40.7171C150.909 40.1858 151.236 39.8585 151.571 39.5287C152.435 38.6751 153.263 37.7813 154.162 36.9655C154.711 36.4695 154.653 36.1497 154.137 35.6789C153.271 34.8883 152.463 34.0372 151.639 33.1988C150.733 32.2748 150.735 31.5798 151.544 30.7212C152.453 29.7544 153.178 30.2554 153.89 30.9554C154.729 31.7762 155.572 32.592 156.375 33.4481C156.798 33.8988 157.108 33.9491 157.637 33.5563C158.455 32.9495 159.112 32.1917 159.827 31.4917C161.308 30.0439 161.819 29.8702 162.602 30.6382C163.576 31.5924 163.44 32.2043 161.925 33.7049C161.21 34.4124 160.52 35.1451 159.78 35.8249C159.372 36.2001 159.379 36.4544 159.777 36.8321C160.719 37.7284 161.63 38.6525 162.532 39.5866C163.231 40.3092 163.284 41.3667 162.625 41.9131C161.859 42.5501 161.071 42.6709 160.296 41.8627C159.427 40.9563 158.503 40.0977 157.644 39.1812C157.191 38.7003 156.856 38.7104 156.411 39.1812C155.517 40.1229 154.578 41.0217 153.666 41.9483C153.15 42.472 152.556 42.5123 151.952 42.185C151.385 41.8778 150.914 41.4548 150.987 40.712L150.985 40.7171Z" fill="#939598"/>
</svg>
