<svg xmlns="http://www.w3.org/2000/svg" width="26" height="26" viewBox="0 0 26 26" fill="none">
  <path d="M22.7338 13.5265C22.6322 15.4073 21.9881 17.2185 20.8792 18.741C19.7703 20.2636 18.2441 21.4323 16.4851 22.106C14.7261 22.7797 12.8097 22.9294 10.9674 22.5372C9.12516 22.1449 7.43595 21.2274 6.104 19.8956C4.77205 18.5638 3.85438 16.8747 3.46192 15.0324C3.06946 13.1902 3.21901 11.2738 3.8925 9.51471C4.56599 7.75567 5.73458 6.22937 7.25701 5.1203C8.77944 4.01123 10.5905 3.36689 12.4713 3.26516C12.9101 3.24133 13.1398 3.76349 12.9068 4.13508C12.1278 5.38151 11.7942 6.85519 11.9605 8.31561C12.1269 9.77603 12.7833 11.137 13.8226 12.1763C14.8619 13.2157 16.2229 13.8721 17.6833 14.0384C19.1437 14.2047 20.6174 13.8711 21.8638 13.0921C22.2365 12.8592 22.7576 13.0877 22.7338 13.5265Z" stroke="var(--text)" stroke-width="2" stroke-linecap="round" stroke-linejoin="round"/>
</svg>
