<svg width="268" height="62" viewBox="0 0 268 62" fill="none" xmlns="http://www.w3.org/2000/svg">
<path d="M1.952 53.4998V37.4998H6.752L6.976 40.9558C7.38133 39.7611 7.97867 38.8331 8.768 38.1718C9.57867 37.5104 10.6027 37.1798 11.84 37.1798C12.2453 37.1798 12.5867 37.2118 12.864 37.2758C13.1627 37.3398 13.3973 37.4251 13.568 37.5318L13.024 42.0118C12.8107 41.9264 12.5333 41.8624 12.192 41.8198C11.872 41.7558 11.4773 41.7238 11.008 41.7238C10.368 41.7238 9.77067 41.8624 9.216 42.1398C8.66133 42.4171 8.21333 42.8331 7.872 43.3878C7.552 43.9211 7.392 44.6038 7.392 45.4358V53.4998H1.952ZM23.3225 53.8198C21.5518 53.8198 20.0158 53.4891 18.7145 52.8278C17.4345 52.1664 16.4425 51.2171 15.7385 49.9798C15.0345 48.7424 14.6825 47.2491 14.6825 45.4998C14.6825 43.7504 15.0345 42.2571 15.7385 41.0198C16.4425 39.7824 17.4238 38.8331 18.6825 38.1718C19.9625 37.5104 21.4238 37.1798 23.0665 37.1798C24.7518 37.1798 26.1812 37.5104 27.3545 38.1718C28.5492 38.8118 29.4558 39.7078 30.0745 40.8598C30.6932 41.9904 31.0025 43.2918 31.0025 44.7638C31.0025 45.1478 30.9918 45.5318 30.9705 45.9158C30.9492 46.2998 30.9172 46.6198 30.8745 46.8758H18.2025V43.9638H28.4745L25.8825 44.9558C25.8825 43.6758 25.6478 42.6944 25.1785 42.0118C24.7305 41.3291 24.0265 40.9878 23.0665 40.9878C22.3838 40.9878 21.7972 41.1478 21.3065 41.4678C20.8372 41.7878 20.4745 42.2891 20.2185 42.9718C19.9838 43.6544 19.8665 44.5291 19.8665 45.5958C19.8665 46.6411 20.0052 47.4944 20.2825 48.1558C20.5598 48.7958 20.9545 49.2651 21.4665 49.5638C21.9785 49.8411 22.5972 49.9798 23.3225 49.9798C24.1332 49.9798 24.7732 49.8198 25.2425 49.4998C25.7332 49.1798 26.0958 48.7318 26.3305 48.1558L30.6825 49.5958C30.3838 50.5131 29.8612 51.2918 29.1145 51.9318C28.3892 52.5504 27.5145 53.0198 26.4905 53.3398C25.4878 53.6598 24.4318 53.8198 23.3225 53.8198ZM42.9738 43.3558C42.9738 42.6091 42.7604 42.0224 42.3338 41.5958C41.9284 41.1478 41.3738 40.9238 40.6698 40.9238C39.9658 40.9238 39.3578 41.1051 38.8458 41.4678C38.3551 41.8091 38.0138 42.4278 37.8218 43.3238L33.2138 42.2358C33.5124 40.6998 34.3018 39.4731 35.5818 38.5558C36.8618 37.6384 38.6644 37.1798 40.9898 37.1798C42.5471 37.1798 43.8698 37.4144 44.9578 37.8838C46.0671 38.3318 46.9098 39.0144 47.4858 39.9318C48.0831 40.8278 48.3818 41.9371 48.3818 43.2598V49.1158C48.3818 49.9478 48.7551 50.3638 49.5018 50.3638C49.8858 50.3638 50.1951 50.3211 50.4298 50.2358L50.1098 53.3398C49.4698 53.6384 48.6911 53.7878 47.7738 53.7878C46.9418 53.7878 46.2058 53.6598 45.5658 53.4038C44.9258 53.1264 44.4244 52.7211 44.0618 52.1878C43.6991 51.6331 43.5178 50.9398 43.5178 50.1078V49.9158L44.1258 49.6918C44.1258 50.6091 43.8484 51.3771 43.2938 51.9958C42.7604 52.6144 42.0564 53.0731 41.1818 53.3718C40.3284 53.6704 39.4324 53.8198 38.4938 53.8198C37.4058 53.8198 36.4564 53.6491 35.6458 53.3078C34.8351 52.9664 34.2058 52.4758 33.7578 51.8358C33.3311 51.1744 33.1178 50.3638 33.1178 49.4038C33.1178 48.2518 33.4591 47.3024 34.1418 46.5558C34.8458 45.7878 35.9444 45.2544 37.4378 44.9558L43.4858 43.7078L43.4538 46.5878L40.3818 47.2278C39.7418 47.3558 39.2618 47.5478 38.9418 47.8038C38.6431 48.0384 38.4938 48.4011 38.4938 48.8918C38.4938 49.3611 38.6644 49.7131 39.0058 49.9478C39.3471 50.1824 39.7524 50.2998 40.2218 50.2998C40.5844 50.2998 40.9258 50.2464 41.2458 50.1398C41.5871 50.0331 41.8858 49.8731 42.1418 49.6598C42.3978 49.4251 42.6004 49.1371 42.7498 48.7958C42.8991 48.4544 42.9738 48.0491 42.9738 47.5798V43.3558ZM58.34 53.8198C57.0173 53.8198 55.8547 53.4998 54.852 52.8598C53.8707 52.1984 53.1027 51.2491 52.548 50.0118C52.0147 48.7744 51.748 47.2918 51.748 45.5638C51.748 43.7718 52.0253 42.2571 52.58 41.0198C53.156 39.7824 53.9453 38.8331 54.948 38.1718C55.972 37.5104 57.1453 37.1798 58.468 37.1798C59.9187 37.1798 61.0813 37.6278 61.956 38.5238C62.852 39.3984 63.428 40.5184 63.684 41.8838L63.172 42.5558V30.7158H68.612V53.4998H63.748L63.396 48.0598L64.036 48.5398C63.908 49.6064 63.5773 50.5344 63.044 51.3238C62.532 52.1131 61.8707 52.7318 61.06 53.1798C60.2707 53.6064 59.364 53.8198 58.34 53.8198ZM60.228 49.8198C60.8467 49.8198 61.3693 49.6598 61.796 49.3398C62.244 48.9984 62.5853 48.4971 62.82 47.8358C63.0547 47.1744 63.172 46.3638 63.172 45.4038C63.172 44.5078 63.0547 43.7504 62.82 43.1318C62.6067 42.4918 62.276 42.0118 61.828 41.6918C61.4013 41.3504 60.8787 41.1798 60.26 41.1798C59.3213 41.1798 58.5747 41.5318 58.02 42.2358C57.4867 42.9184 57.22 44.0064 57.22 45.4998C57.22 46.9931 57.4867 48.0918 58.02 48.7958C58.5533 49.4784 59.2893 49.8198 60.228 49.8198ZM79.2025 32.4118V47.8038C79.2025 48.5718 79.3838 49.1264 79.7465 49.4678C80.1305 49.7878 80.6532 49.9478 81.3145 49.9478C81.8265 49.9478 82.2638 49.8944 82.6265 49.7878C83.0105 49.6598 83.3518 49.4784 83.6505 49.2438L84.2265 52.6038C83.6932 52.9878 83.0212 53.2864 82.2105 53.4998C81.3998 53.7131 80.5678 53.8198 79.7145 53.8198C78.4985 53.8198 77.4425 53.6491 76.5465 53.3078C75.6718 52.9664 74.9892 52.4224 74.4985 51.6758C74.0292 50.9291 73.7838 49.9371 73.7625 48.6998V33.9158L79.2025 32.4118ZM83.9705 37.4998V41.3718H71.0105V37.4998H83.9705ZM86.8583 53.4998V30.7158H92.2983V40.4118C92.7676 39.3451 93.4396 38.5451 94.3142 38.0118C95.1889 37.4571 96.2023 37.1798 97.3543 37.1798C98.4636 37.1798 99.4236 37.3931 100.234 37.8198C101.066 38.2464 101.717 38.8758 102.186 39.7078C102.656 40.5398 102.89 41.5851 102.89 42.8438V53.4998H97.4503V44.3478C97.4503 43.1958 97.2369 42.4064 96.8103 41.9798C96.4049 41.5318 95.8609 41.3078 95.1783 41.3078C94.6663 41.3078 94.1863 41.4358 93.7383 41.6918C93.2903 41.9478 92.9383 42.3531 92.6823 42.9078C92.4263 43.4624 92.2983 44.1878 92.2983 45.0838V53.4998H86.8583ZM109.422 35.6438C108.313 35.6438 107.502 35.4411 106.99 35.0358C106.499 34.6091 106.254 33.9478 106.254 33.0518C106.254 32.1344 106.499 31.4731 106.99 31.0678C107.502 30.6411 108.313 30.4278 109.422 30.4278C110.51 30.4278 111.31 30.6411 111.822 31.0678C112.334 31.4731 112.59 32.1344 112.59 33.0518C112.59 33.9478 112.334 34.6091 111.822 35.0358C111.31 35.4411 110.51 35.6438 109.422 35.6438ZM112.142 37.4998V53.4998H106.702V37.4998H112.142ZM122.735 53.8198C121.135 53.8198 119.641 53.5638 118.255 53.0518C116.889 52.5184 115.759 51.7611 114.863 50.7798L117.423 47.7718C117.956 48.4544 118.66 49.0304 119.535 49.4998C120.431 49.9478 121.423 50.1718 122.51 50.1718C123.172 50.1718 123.716 50.0758 124.143 49.8838C124.569 49.6918 124.783 49.3931 124.783 48.9878C124.783 48.6891 124.676 48.4544 124.463 48.2838C124.249 48.0918 123.823 47.9318 123.183 47.8038L120.943 47.3558C118.937 46.9504 117.508 46.3531 116.655 45.5638C115.823 44.7531 115.407 43.6971 115.407 42.3958C115.407 41.5211 115.673 40.6891 116.207 39.8998C116.74 39.0891 117.561 38.4384 118.671 37.9478C119.78 37.4358 121.199 37.1798 122.927 37.1798C124.548 37.1798 125.977 37.4144 127.215 37.8838C128.452 38.3531 129.433 39.0358 130.159 39.9318L127.567 42.8758C127.055 42.2358 126.393 41.7344 125.583 41.3718C124.772 41.0091 123.961 40.8278 123.151 40.8278C122.639 40.8278 122.201 40.8811 121.839 40.9878C121.497 41.0731 121.241 41.2011 121.071 41.3718C120.9 41.5424 120.815 41.7558 120.815 42.0118C120.815 42.2891 120.943 42.5344 121.199 42.7478C121.476 42.9398 121.977 43.1104 122.703 43.2598L125.615 43.8358C127.257 44.1344 128.441 44.6784 129.167 45.4678C129.892 46.2571 130.255 47.2064 130.255 48.3158C130.255 49.3611 129.977 50.2998 129.423 51.1318C128.868 51.9638 128.036 52.6251 126.927 53.1158C125.817 53.5851 124.42 53.8198 122.735 53.8198Z" fill="#FAF3E3"/>
<path d="M188.209 2.20919C187.296 1.37884 187.195 0.477556 188.285 0.0838858C188.999 -0.173938 190.562 0.00798204 192.459 2.89232C194.357 5.77665 194.509 9.42003 194.281 12.1994C194.129 14.0502 192.08 20.1224 188.133 26.1947C187.225 27.8893 186.889 29.5219 187.526 30.2176C188.03 30.7679 188.588 31.5652 189.102 32.4188C190.106 34.0887 188.892 40.92 188.892 42.4381C188.892 43.5766 189.12 44.5634 189.405 45.1706C189.661 45.9849 190.434 47.1009 191.473 48.2068C193.035 49.8694 193.016 49.6007 192.915 52.2297C192.761 56.2343 192.601 57.6613 191.7 59.4405C191.11 60.6073 190.812 60.8083 188.664 60.8068C186.592 60.8053 186.457 60.7492 186.311 59.9718C186.132 59.0143 186.463 58.1501 187.829 58.0742C188.383 58.0742 188.695 57.7202 188.892 55.9489C189.051 54.5213 189.043 53.5453 188.664 53.1405C188.096 52.5333 185.704 51.926 184.641 51.2429C183.815 50.8728 180.239 47.9032 179.632 47.8273C179.202 47.8204 179.234 49.1935 179.708 52.761C179.867 53.9599 179.719 54.6448 178.341 56.0248C176.765 57.6046 174.148 59.4427 173.484 59.8959C172.858 60.3026 172.786 60.432 170.675 60.4272C168.039 60.4214 168.019 60.5396 168.019 59.3225C168.019 58.0449 168.585 57.8465 170.372 57.8465C170.947 57.8465 171.535 57.6304 172.269 56.9357C172.381 56.8301 172.966 56.3625 173.256 56.1414C174.379 55.2849 174.803 54.564 173.939 53.2923C173.605 52.8005 173.408 52.4364 173.028 51.7742C172.624 51.0693 171.814 49.1176 170.903 49.3453C169.004 50.1683 165.058 51.7742 159.29 53.2164C156.588 53.5663 153.551 54.0058 152.807 55.2658C149.657 56.5258 147.669 57.3321 146.669 57.8204C146.008 58.143 143.211 58.9728 142.181 59.3225C141.291 59.6243 139.907 60.5736 137.687 60.9358C137.27 61.0039 137.809 60.9586 133.938 61.1104C133.038 61.1104 132.475 59.88 133.103 58.9851C133.635 58.226 133.775 58.1553 134.925 58.1501C135.973 58.1454 135.763 58.5465 138.34 57.2393C139.782 56.4044 141.542 55.3784 141.984 55.114C142.426 54.8496 145.775 52.761 145.855 52.761C146.831 52.2297 146.779 51.7968 146.841 50.1044C146.899 48.564 146.735 47.631 146.158 47.22C145.437 46.7066 143.694 46.7614 143.046 47.3718C141.692 48.6478 141.634 48.8436 139.327 47.7513L139.313 47.7449C139.117 47.6522 138.562 47.3893 138.264 47.1441C137.716 46.6924 137.961 46.6128 137.733 45.702C137.657 45.0947 138.644 45.0188 138.112 43.0453L137.961 41.6791L139.403 39.4019C140.238 38.4911 140.162 37.808 138.644 36.1381C138.037 35.5309 137.684 35.049 137.885 34.8477C138.027 34.7051 138.505 34.7539 139.099 34.9236C139.655 35.0826 141.073 36.0622 139.631 34.7083C139.327 34.0128 139.479 33.6333 141.376 34.2534C141.627 34.4152 142.102 34.6749 142.591 34.9236C143.309 35.2892 144.235 35.5985 145.739 35.7457C146.635 35.8335 147.489 35.9696 147.636 36.0482C149.021 36.7878 149.346 36.8185 154.052 36.214C162.326 35.1514 164.755 29.8381 167.563 29.2654C172.041 26.5742 178.091 26.1464 179.176 26.1031C180.373 26.0554 181.332 25.9415 181.612 25.8138C182.105 25.5889 182.889 24.8018 183.202 24.2169C195.647 9.64774 189.227 3.135 188.209 2.20919Z" fill="#EC534E"/>
<path d="M199.64 47.9958C200.643 47.9958 201.421 48.2518 201.976 48.7638C202.552 49.2758 202.84 49.9904 202.84 50.9078C202.84 51.8038 202.552 52.5078 201.976 53.0198C201.421 53.5318 200.643 53.7878 199.64 53.7878C198.659 53.7878 197.88 53.5318 197.304 53.0198C196.728 52.5078 196.44 51.8038 196.44 50.9078C196.44 49.9904 196.728 49.2758 197.304 48.7638C197.88 48.2518 198.659 47.9958 199.64 47.9958ZM212.72 30.2678C213.595 30.2678 214.363 30.3638 215.025 30.5558C215.686 30.7264 216.177 30.9291 216.497 31.1638L215.953 34.5558C215.718 34.4064 215.451 34.2891 215.153 34.2038C214.854 34.1184 214.481 34.0758 214.033 34.0758C213.286 34.0758 212.667 34.2464 212.177 34.5878C211.707 34.9291 211.473 35.5264 211.473 36.3798V38.4598L211.793 39.3558V53.4998H206.353V36.0278C206.353 35.0038 206.513 34.1291 206.833 33.4038C207.174 32.6784 207.643 32.0811 208.241 31.6118C208.838 31.1424 209.521 30.8011 210.289 30.5878C211.057 30.3744 211.867 30.2678 212.72 30.2678ZM216.337 37.4998V41.3718H203.793V37.4998H216.337ZM234.642 37.4998L228.818 53.4998C228.22 55.1851 227.57 56.5291 226.866 57.5318C226.162 58.5344 225.33 59.2598 224.37 59.7078C223.41 60.1558 222.258 60.3798 220.914 60.3798C220.018 60.3798 219.196 60.2838 218.45 60.0918C217.703 59.8998 217.052 59.6331 216.498 59.2918L217.586 55.6118C217.97 55.8891 218.375 56.0811 218.802 56.1878C219.228 56.3158 219.772 56.3798 220.434 56.3798C221.052 56.3798 221.554 56.2731 221.938 56.0598C222.343 55.8464 222.663 55.4411 222.898 54.8438L223.314 53.8518L221.458 49.4998L216.658 37.4998H222.642L225.106 46.6198L225.874 50.0118L226.77 46.4918L229.234 37.4998H234.642ZM239.297 35.6438C238.188 35.6438 237.377 35.4411 236.865 35.0358C236.374 34.6091 236.129 33.9478 236.129 33.0518C236.129 32.1344 236.374 31.4731 236.865 31.0678C237.377 30.6411 238.188 30.4278 239.297 30.4278C240.385 30.4278 241.185 30.6411 241.697 31.0678C242.209 31.4731 242.465 32.1344 242.465 33.0518C242.465 33.9478 242.209 34.6091 241.697 35.0358C241.185 35.4411 240.385 35.6438 239.297 35.6438ZM242.017 37.4998V53.4998H236.577V37.4998H242.017Z" fill="#FAF3E3"/>
<path d="M248.816 26.7238L250.096 27.9718C249.499 28.5158 249.008 29.0918 248.624 29.6998C248.24 30.3078 247.957 30.9744 247.776 31.6998C247.605 32.4144 247.52 33.2251 247.52 34.1318C247.52 35.0384 247.605 35.8598 247.776 36.5958C247.957 37.3211 248.24 37.9824 248.624 38.5798C249.008 39.1878 249.499 39.7638 250.096 40.3078L248.816 41.5558C247.589 40.7344 246.656 39.7104 246.016 38.4838C245.387 37.2464 245.072 35.7958 245.072 34.1318C245.072 32.4891 245.387 31.0491 246.016 29.8118C246.656 28.5744 247.589 27.5451 248.816 26.7238ZM254.234 38.6598C253.551 38.6598 252.965 38.4784 252.474 38.1158C251.983 37.7424 251.61 37.2198 251.354 36.5478C251.098 35.8651 250.97 35.0704 250.97 34.1638C250.97 32.6704 251.274 31.5398 251.882 30.7718C252.49 29.9931 253.301 29.6038 254.314 29.6038C254.73 29.6038 255.093 29.6624 255.402 29.7798C255.722 29.8864 255.999 30.0358 256.234 30.2278C256.469 30.4198 256.671 30.6384 256.842 30.8838H256.906L257.114 29.7638H259.13V35.7318C259.13 36.0944 259.194 36.3398 259.322 36.4678C259.461 36.5958 259.615 36.6598 259.786 36.6598C259.861 36.6598 259.946 36.6491 260.042 36.6278C260.138 36.6064 260.207 36.5904 260.25 36.5798V38.4518C260.197 38.4838 260.106 38.5158 259.978 38.5478C259.85 38.5798 259.711 38.6064 259.562 38.6278C259.423 38.6491 259.295 38.6598 259.178 38.6598C258.645 38.6598 258.213 38.5638 257.882 38.3718C257.551 38.1798 257.295 37.8384 257.114 37.3478H256.954C256.794 37.5824 256.586 37.8011 256.33 38.0038C256.074 38.2064 255.77 38.3664 255.418 38.4838C255.066 38.6011 254.671 38.6598 254.234 38.6598ZM255.114 36.7878C255.551 36.7878 255.898 36.6971 256.154 36.5158C256.421 36.3344 256.613 36.0571 256.73 35.6838C256.847 35.2998 256.906 34.8198 256.906 34.2438V34.1478C256.906 33.2944 256.773 32.6491 256.506 32.2118C256.25 31.7638 255.775 31.5398 255.082 31.5398C254.517 31.5398 254.095 31.7638 253.818 32.2118C253.541 32.6598 253.402 33.3158 253.402 34.1798C253.402 35.0331 253.541 35.6838 253.818 36.1318C254.095 36.5691 254.527 36.7878 255.114 36.7878ZM262.206 41.5558L260.926 40.3078C261.534 39.7638 262.024 39.1878 262.398 38.5798C262.782 37.9824 263.059 37.3211 263.23 36.5958C263.4 35.8598 263.486 35.0438 263.486 34.1478C263.486 33.2411 263.4 32.4251 263.23 31.6998C263.059 30.9744 262.782 30.3078 262.398 29.6998C262.024 29.0918 261.534 28.5158 260.926 27.9718L262.206 26.7238C263.422 27.5451 264.35 28.5744 264.99 29.8118C265.63 31.0491 265.95 32.4944 265.95 34.1478C265.95 35.8011 265.63 37.2464 264.99 38.4838C264.35 39.7104 263.422 40.7344 262.206 41.5558Z" fill="#EC534E"/>
</svg>
